<?xml version="1.0" standalone="no"?>
<!DOCTYPE svg PUBLIC "-//W3C//DTD SVG 20010904//EN"
 "http://www.w3.org/TR/2001/REC-SVG-20010904/DTD/svg10.dtd">
<svg version="1.0" xmlns="http://www.w3.org/2000/svg"
 width="150.000000pt" height="150.000000pt" viewBox="0 0 150.000000 150.000000"
 preserveAspectRatio="xMidYMid meet">

<g transform="translate(0.000000,150.000000) scale(0.100000,-0.100000)"
fill="#000000" stroke="none">
<path d="M188 1463 l-28 -4 0 -179 0 -178 -43 -39 c-80 -70 -77 -47 -77 -540
0 -497 -9 -449 89 -473 98 -23 270 7 272 49 0 9 0 45 0 81 -1 50 1 61 9 47 12
-19 84 -25 95 -7 3 5 19 7 34 4 16 -4 39 0 52 7 13 8 37 14 54 14 l30 0 29
128 c27 117 31 127 52 127 25 0 30 -12 55 -130 10 -46 13 -51 20 -33 12 32 64
57 89 43 14 -7 20 -7 20 0 0 24 39 6 93 -43 l57 -52 7 -102 6 -101 41 -19 c60
-27 226 -26 281 2 l40 20 1 424 c1 405 0 427 -19 473 -13 31 -36 63 -64 86
l-45 36 2 160 c1 89 2 169 1 179 -1 14 -11 17 -61 17 -55 0 -60 -2 -61 -22 0
-13 0 -93 0 -178 l1 -155 -60 -63 c-33 -34 -60 -58 -60 -52 0 17 -50 78 -82
101 -27 20 -30 20 -54 4 -31 -20 -78 -23 -99 -5 -8 7 -17 11 -19 9 -2 -2 -13
-47 -25 -99 -39 -170 -39 -170 -65 -170 -21 0 -25 9 -46 103 -20 90 -26 104
-48 115 -35 16 -45 15 -38 -4 4 -11 1 -14 -12 -10 -12 4 -23 -3 -35 -24 -10
-17 -16 -34 -13 -39 3 -5 -1 -12 -10 -15 -25 -10 -34 -7 -34 9 0 8 -9 24 -21
36 -19 19 -22 19 -37 6 -10 -9 -29 -20 -44 -26 -24 -9 -27 -7 -38 19 -7 16
-32 46 -56 65 l-44 36 0 179 c0 206 4 197 -92 183z m1142 -245 c0 -9 -15 -13
-42 -13 l-43 0 -8 -90 c-4 -49 -6 -118 -5 -151 l4 -61 -153 -77 c-150 -74
-193 -89 -193 -63 0 10 204 157 252 181 13 7 18 20 18 53 0 23 4 43 9 43 4 0
20 11 35 25 23 22 26 31 26 95 l0 70 50 0 c33 0 50 -4 50 -12z m-1129 -294
c63 -42 115 -77 116 -78 2 -2 -3 -11 -10 -21 -13 -16 -20 -14 -113 39 -135 78
-138 80 -130 110 3 15 10 26 15 26 5 0 60 -34 122 -76z m296 -63 c70 -48 127
-92 126 -97 -1 -5 -10 -10 -20 -12 -25 -4 -293 136 -293 153 0 18 27 45 45 45
8 0 71 -40 142 -89z m-267 -67 c0 -6 -10 -31 -23 -56 l-23 -46 -11 29 c-12 32
-49 40 -59 14 -4 -8 2 -50 13 -93 19 -76 19 -77 53 -80 47 -5 56 -16 38 -44
-16 -24 -14 -83 4 -105 7 -9 50 8 170 68 126 63 167 79 196 77 34 -3 30 -6
-131 -117 -92 -63 -167 -121 -167 -128 0 -15 -220 -164 -232 -157 -4 3 -8 16
-8 29 0 27 17 41 135 110 72 42 82 51 65 57 -15 6 -44 -4 -100 -32 -44 -22
-84 -40 -90 -40 -11 0 -15 592 -4 603 9 8 174 -75 174 -89z m590 -14 c8 -5 24
-17 34 -29 16 -17 17 -23 6 -36 -12 -14 -16 -13 -37 7 -20 19 -37 23 -89 24
-73 1 -86 7 -53 25 52 27 97 30 139 9z m-654 -95 c7 -53 20 -58 32 -13 12 49
38 48 53 -2 14 -45 22 -39 33 23 4 23 13 37 21 37 19 0 19 -6 -1 -85 -20 -80
-44 -88 -67 -22 l-14 42 -13 -42 c-9 -30 -19 -43 -31 -43 -18 0 -30 27 -48
108 -8 37 -7 42 9 42 15 0 20 -10 26 -45z m214 -30 c0 -68 -2 -75 -20 -75 -18
0 -20 7 -20 75 0 68 2 75 20 75 18 0 20 -7 20 -75z m87 34 l31 -40 7 40 c4 25
12 41 21 41 11 0 14 -17 14 -75 0 -91 -14 -97 -62 -27 l-33 47 -3 -47 c-2 -34
-7 -48 -18 -48 -11 0 -14 16 -14 75 0 88 10 95 57 34z m203 31 c0 -5 -16 -10
-35 -10 -28 0 -35 -4 -35 -20 0 -16 7 -20 30 -20 17 0 30 -4 30 -10 0 -5 -13
-10 -30 -10 -25 0 -30 -4 -30 -25 0 -22 4 -25 40 -25 22 0 40 -4 40 -10 0 -5
-25 -10 -55 -10 l-55 0 0 75 0 75 50 0 c28 0 50 -4 50 -10z m140 -10 c12 -12
20 -33 20 -55 0 -50 -28 -75 -85 -75 l-45 0 0 75 0 75 45 0 c32 0 51 -6 65
-20z m170 0 c12 -12 20 -33 20 -55 0 -46 -29 -75 -74 -75 -39 0 -76 37 -76 75
0 12 9 34 21 49 26 33 79 36 109 6z m114 -22 l36 -43 0 43 c0 31 4 42 15 42
12 0 15 -15 15 -75 0 -92 -13 -97 -61 -22 l-34 52 -3 -52 c-2 -38 -7 -53 -18
-53 -11 0 -14 16 -14 75 0 90 11 96 64 33z m136 -33 c0 -68 -2 -75 -20 -75
-18 0 -20 7 -20 75 0 68 2 75 20 75 18 0 20 -7 20 -75z m132 5 c32 -78 32 -80
12 -80 -9 0 -18 9 -21 20 -4 15 -14 20 -38 20 -24 0 -34 -5 -38 -20 -3 -11
-13 -20 -22 -20 -19 0 -16 14 21 98 31 71 50 67 86 -18z m-106 19 l-14 -34 -1
32 c-1 17 5 33 12 36 19 7 19 2 3 -34z m-989 9 c-3 -8 -6 -5 -6 6 -1 11 2 17
5 13 3 -3 4 -12 1 -19z m60 -60 c-3 -7 -5 -2 -5 12 0 14 2 19 5 13 2 -7 2 -19
0 -25z m353 2 c0 -5 -12 -10 -27 -9 l-28 1 25 8 c14 4 26 8 28 9 1 1 2 -3 2
-9z m165 -60 c-25 -28 -77 -41 -120 -29 -54 15 -48 24 16 24 47 0 63 4 81 22
28 29 50 13 23 -17z m253 -73 c110 -56 112 -57 112 -33 0 14 5 28 10 31 7 4
10 -70 10 -216 l0 -221 -31 6 c-17 3 -43 12 -58 19 -24 11 -26 18 -29 82 l-3
69 25 -24 26 -23 0 95 c0 82 -3 96 -18 104 -31 15 -252 169 -252 175 0 19 110
-15 208 -64z"/>
<path d="M730 655 c0 -48 3 -55 19 -55 45 0 68 62 35 94 -8 9 -24 16 -35 16
-16 0 -19 -7 -19 -55z m45 0 c0 -16 -6 -30 -12 -32 -9 -3 -13 7 -13 32 0 25 4
35 13 33 6 -3 12 -17 12 -33z"/>
<path d="M902 698 c-21 -27 -22 -55 -3 -79 16 -21 22 -22 45 -11 47 21 30 102
-22 102 -5 0 -14 -6 -20 -12z m53 -28 c3 -5 4 -14 0 -20 -8 -13 -35 -1 -35 16
0 16 26 19 35 4z"/>
<path d="M1302 665 c-11 -23 -10 -25 14 -25 22 0 24 2 13 23 -6 12 -13 23 -14
25 -1 1 -7 -9 -13 -23z"/>
</g>
</svg>
